# xmcd CD database file
#
# Track frame offsets:
#	150
#	14015
#	29158
#	50040
#	66299
#	85475
#	97502
#	109015
#	123384
#	142185
#	157717
#	177040
#	192807
#	207089
#
# Disc length: 3058 seconds
#
# Revision: 0
# Processed by: cddbd v1.5.2PL0 Copyright (c) Steve Scherf et al.
# Submitted via: CDex 1.70beta2
#
DISCID=be0bf00e
DTITLE=Aimee Pettersen - Living Proof
DYEAR=2004
DGENRE=Country
TTITLE0=You and Me
TTITLE1=Walk on Water
TTITLE2=Rag Doll
TTITLE3=Giving It Up
TTITLE4=Now That It's Over
TTITLE5=Summer Night
TTITLE6=Momma's Shoes
TTITLE7=Rocking Little Beauty
TTITLE8=When We're Young
TTITLE9=Perfect Moments
TTITLE10=Time to Burn
TTITLE11=Can't Make a Fool
TTITLE12=It's a Good Thing
TTITLE13=Living Proof
EXTD=YEAR: 2004
EXTT0=
EXTT1=
EXTT2=
EXTT3=
EXTT4=
EXTT5=
EXTT6=
EXTT7=
EXTT8=
EXTT9=
EXTT10=
EXTT11=
EXTT12=
EXTT13=
PLAYORDER=
